<svg xmlns="http://www.w3.org/2000/svg" viewBox="0 0 958.94 259.17"><path d="M907.64,123.37l51.3,135.8c-15.12-2.16-30.23-4.86-45.61-7.3l-28.9-75-29.69,68.85c-14.58-2.44-28.89-3.25-43.47-5.14l52.11-118.79L816.12,0h43.74l26.45,68L914.67,0h44.26ZM781.58,0H741.89V235.42c13,.81,26.46,1.34,39.69,3Zm-74,232.71c-36.17-2.43-72.35-4.58-109.33-5.4V0h40.49V189c23.22.54,46.43,2.42,68.84,3.5ZM555.06,92.07v40.49H499.72v92.06h-40V0H573.16V40.49H499.73V92.07h55.33ZM391.73,40.49V226.78c-13.5,0-27.26,0-40.5.53V40.49H309.38V0H433.84V40.49ZM265.65,134.71c-17.81,0-38.87,0-54,.82v60.2c23.76-1.63,47.51-3.51,71.54-4.32v38.87l-112,8.92V0h112V40.49H211.66V95c15.66,0,39.69-.81,54-.81v40.5ZM41.29,112V253.5C26.73,255.12,13.76,257,0,259.17V0H38.61L91.25,147.14V0h40.5V242.43c-14.31,2.44-28.89,3.25-44.28,5.4Z" fill="#e50914"/></svg>